<?xml version="1.0" encoding="utf-8"?>
<!-- Generator: Adobe Illustrator 16.0.0, SVG Export Plug-In . SVG Version: 6.00 Build 0)  -->
<!DOCTYPE svg PUBLIC "-//W3C//DTD SVG 1.1//EN" "http://www.w3.org/Graphics/SVG/1.1/DTD/svg11.dtd">
<svg version="1.1" id="Layer_1" xmlns="http://www.w3.org/2000/svg" xmlns:xlink="http://www.w3.org/1999/xlink" x="0px" y="0px"
	 max-width="249.75px" max-height="157.283px" viewBox="0 0 249.75 157.283" enable-background="new 0 0 249.75 157.283"
	 xml:space="preserve">
<path fill="#B53E44" d="M84.162,100.496h-4.506c0,0,0-1.379,0-2.313c0-0.934-2.313-0.91-2.313,0c0,0.912,0,6.627,0,7.649
	s2.313,1,2.313,0c0-1.001,0-2.905,0-2.905h4.506c0,0,0,0.186,0,1.254c0,1.809-2.105,4.379-5.692,4.379
	c-3.587,0-5.692-2.035-5.692-4.416c0-1.334,0-2.166,0-3.834c0-2.431,1.364-4.941,5.692-4.941c4.329,0,5.692,2.395,5.692,4.482
	C84.162,100.962,84.162,100.496,84.162,100.496z"/>
<path fill="#B53E44" d="M173.605,95.367c-4.33,0-5.692,2.513-5.692,4.942c0,1.668,0,2.5,0,3.834c0,2.381,2.104,4.416,5.69,4.416
	c3.588,0,5.692-2.57,5.692-4.379c0-0.259,0-3.64,0-4.33C179.297,97.761,177.934,95.367,173.605,95.367z M174.79,104.41
	c0,0.5,0,1.03,0,1.423c0,1-2.313,1.021-2.313,0c0-1.023,0-6.736,0-7.648s2.313-0.935,2.313,0c0,0.612,0,3.104,0,4.744
	C174.79,103.785,174.79,104.41,174.79,104.41z"/>
<path fill="#B53E44" d="M96.689,95.367c-4.33,0-5.693,2.513-5.693,4.942c0,1.668,0,2.5,0,3.834c0,2.381,2.104,4.416,5.691,4.416
	s5.693-2.57,5.693-4.379c0-0.259,0-3.64,0-4.33C102.38,97.761,101.017,95.367,96.689,95.367z M97.873,104.41c0,0.5,0,1.03,0,1.423
	c0,1-2.313,1.021-2.313,0c0-1.023,0-6.736,0-7.648s2.313-0.935,2.313,0c0,0.612,0,3.104,0,4.744
	C97.873,103.785,97.873,104.41,97.873,104.41z"/>
<rect x="156.992" y="95.367" fill="#B53E44" width="4.092" height="13.192"/>
<g>
	<path fill="#B53E44" d="M32,134.616H18.958c0,0,0-2.875,0-5.5c0-4.262-5.5-4.199-5.5,0c0,2.563,0,16.625,0,19.5
		c0,4.158,5.5,4.097,5.5,0c0-2.813,0-7.166,0-7.166H32c0,0,0,1.332,0,4.332c0,5.084-5.917,11.5-16,11.5s-16-4.912-16-11.6
		c0-3.75,0-7.713,0-12.4C0,126.45,3.833,120.2,16,120.2s16,5.916,16,11.791C32,135.116,32,134.616,32,134.616z"/>
	<path fill="#B53E44" d="M233.75,120.2c-12.167,0-16,6.25-16,13.082c0,4.689,0,8.65,0,12.4c0,6.688,5.916,11.6,15.999,11.6
		s16.001-6.416,16.001-11.5c0-0.721,0-11.846,0-13.791C249.75,126.116,245.917,120.2,233.75,120.2z M236.583,148.616
		c0,4.203-5.5,4.266-5.5,0c0-2.875,0-16.938,0-19.5c0-4.096,5.5-4.158,5.5,0C236.583,130.84,236.583,147.515,236.583,148.616z"/>
	<rect x="76.666" y="120.2" fill="#B53E44" width="11.5" height="37.082"/>
	<rect x="162.5" y="120.2" fill="#B53E44" width="11.5" height="37.082"/>
	<polygon fill="#B53E44" points="155.979,120.2 148.167,120.2 136.667,120.2 128.854,120.2 128.854,127.95 136.667,127.95 
		136.667,157.283 148.167,157.283 148.167,127.95 155.979,127.95 	"/>
	<path fill="#B53E44" d="M200.375,120.2c0,0,0,13.957,0,19.457s-1.667,9.689-3.479,9.689c-1.813,0-4.021-6.125-4.021-9.689
		c0-3.563,0-19.457,0-19.457h-11.5c0,0,0,9.854,0,18.541s7.833,18.541,10.646,18.541c3,0,4.625,0,8.875,0
		c2.938,0,10.979-9.016,10.979-19.207c0-6.25,0-17.875,0-17.875H200.375L200.375,120.2z"/>
	<path fill="#B53E44" d="M115.094,120.2c-3,0-0.771,0-5.021,0c-5.75,0-12.74,14.5-12.74,26.408c0,6.25,0,10.675,0,10.675h11.5
		c0,0,0-2.568,0-5.875h7.5c0,3.323,0,5.875,0,5.875h11.5c0,0,0-2.229,0-10.916C127.833,134.517,120.157,120.2,115.094,120.2z
		 M112.312,130.91c2.218,0,3.938,9.438,4.017,12.498h-7.494C108.887,140.196,110.091,130.91,112.312,130.91z"/>
	<path fill="#B53E44" d="M69.666,132.735v-2.071c0-5.778-5.487-10.464-12.256-10.464h-7.16h-0.244H38.75v37.083h11.5l0.162-15.291
		c0,0,0.98-0.021,1.828-0.021c0.848,0,1.967-0.027,2.324,1.518c0.357,1.546,3.187,13.794,3.187,13.794h11.5l-3.886-16.597
		C67.994,138.769,69.666,135.92,69.666,132.735z M50.333,134.659v-7.167c0,0,7.542-1.226,7.233,3.386
		C57.235,135.813,50.333,134.659,50.333,134.659z"/>
</g>
<g>
	<path fill="#B53E44" d="M160.465,77.882c0,3.131-1.143,3.361-3.029,3.361c-1.886,0-28.875,0.001-48.187,0.001
		c-19.313,0-28.052-24.014-19.378-36.332c8.424-11.961,18.244-25.675,27.398-37.081c6.305-7.854,15.463-9.273,24.611-6.58
		c13.619,4.012,18.621,15.668,18.621,30.98C160.5,38.325,160.465,74.751,160.465,77.882z M144.77,58.794
		c0.229,0,0.449,0.217,0.449,0.655c0,0.438,0.004,2.267,0.004,3.001c0,0.734,0.479,0.75,0.846,0.75c2.854,0,12.6,0,12.6,0
		s0-7.875,0-12.875s-1.041-8.041-5.041-10.125c-3.752-1.955-8.918-1.541-11.965,1.996c-6.254,7.261-11.246,14.49-16.072,22.773
		c-3.33,5.713,1.475,12.604,8.098,12.854c6.983,0.267,20.25,0,22.063,0s2.836-0.438,2.836-2.625c0-2.187-0.086-9.688-0.086-9.688
		s-14.313-0.051-17.665-0.062c-0.354-0.001-0.75-0.379-0.455-0.957C141.646,62.621,144.161,58.794,144.77,58.794z M108.958,75.302
		c-6.961-6.169-7.414-15.457-3.251-21.96c7.299-11.403,14.374-20.904,18.492-26.101c5.865-7.402,23.208-18.648,34.208,4.057
		c0,0,0.927-22.098-17.396-23.338c-5.39-0.365-11.832,1.588-15.262,5.24c-8.935,10.303-18.766,23.184-27.76,34.686
		C91.062,58.263,99.815,73.037,108.958,75.302z M158.313,41.622c0.131-8.356-3.095-13.398-8.767-15.965
		c-6.139-2.777-13.005-2.08-17.796,3.61c-7.367,8.752-13.548,17.392-19.796,26.962c-5.129,7.855,1.504,19.472,8.88,19.842
		c-8.035-5.725-1.068-15.794,2.125-20.37c4.361-6.249,7.801-11.462,10.965-15.304C141.186,31.575,154.206,34.128,158.313,41.622z"/>
</g>
<path fill="#B53E44" d="M149.497,100.496c0,0,0,0.466,0-0.646c0-2.09-1.364-4.483-5.692-4.483s-5.691,2.513-5.691,4.942
	c0,1.668,0,2.5,0,3.834c0,2.381,2.104,4.416,5.691,4.416c1.187,0,2.055-0.242,2.967-0.643h2.728v-2.736c0-0.47,0-0.953,0-1.355
	c0-0.518,0-0.896,0-0.896v-0.791h-3.008h-2.22v1.688h0.721c0,0.631,0,1.454,0,2.008c0,1-2.313,1.022-2.313,0s0-6.737,0-7.649
	c0-0.91,2.313-0.934,2.313,0c0,0.936,0,2.313,0,2.313h4.506L149.497,100.496L149.497,100.496z"/>
<polygon fill="#B53E44" points="113.75,106.7 113.75,95.367 109.659,95.367 109.659,106.7 109.658,106.7 109.658,108.562 
	109.659,108.562 113.75,108.562 118.305,108.562 118.305,106.7 "/>
<polygon fill="#B53E44" points="132.625,97.228 132.625,95.367 129.012,95.367 130.744,93.636 128.135,93.612 126.379,95.367 
	123.979,95.367 123.978,95.367 123.978,97.228 123.979,97.228 123.979,101.034 123.978,101.034 123.978,102.896 123.979,102.896 
	123.979,106.7 123.978,106.7 123.978,108.562 123.979,108.562 128.07,108.562 132.625,108.562 132.625,106.7 128.07,106.7 
	128.07,102.896 132.625,102.896 132.625,101.034 128.07,101.034 128.07,97.228 "/>
</svg>
